<svg width="174" height="90" viewBox="0 0 174 90" fill="none" xmlns="http://www.w3.org/2000/svg">
<path d="M22.5898 32.7578C24.1602 32.8281 25.3789 32.8633 26.2461 32.8633H27.5469C27.9219 32.8633 28.3906 32.8516 28.9531 32.8281C29.4219 32.8047 30.0195 32.793 30.7461 32.793C31.4727 32.7695 32.3398 32.7344 33.3477 32.6875C32.8789 33.0156 32.5039 33.332 32.2227 33.6367C31.9414 33.9414 31.7188 34.2109 31.5547 34.4453C31.3672 34.7266 31.2383 34.9844 31.168 35.2188C31.0039 35.8281 30.9336 36.6602 30.957 37.7148C31.0039 38.7461 31.1094 39.8711 31.2734 41.0898C31.4375 42.2852 31.6367 43.5039 31.8711 44.7461C32.1055 45.9883 32.3398 47.1133 32.5742 48.1211C32.832 49.1289 33.0547 49.9609 33.2422 50.6172C33.4531 51.25 33.6055 51.5664 33.6992 51.5664C33.793 51.5664 33.9688 51.2266 34.2266 50.5469C34.5078 49.8672 34.8242 49.0117 35.1758 47.9805C35.5273 46.9258 35.8906 45.7891 36.2656 44.5703C36.6406 43.3281 36.9805 42.1562 37.2852 41.0547C37.6133 39.9297 37.8828 38.9688 38.0938 38.1719C38.3047 37.3516 38.4102 36.8477 38.4102 36.6602C38.3867 36.4023 38.3047 36.1328 38.1641 35.8516C38.0469 35.5938 37.8359 35.3008 37.5312 34.9727C37.25 34.6211 36.8516 34.2227 36.3359 33.7773C37.0625 33.7539 37.6836 33.7305 38.1992 33.707C38.7383 33.6836 39.1953 33.6719 39.5703 33.6719H40.6602H46.2852C45.6992 34.0703 45.1953 34.457 44.7734 34.832C44.375 35.207 44.0469 35.5586 43.7891 35.8867C43.4844 36.2617 43.2266 36.6133 43.0156 36.9414C42.7812 37.4336 42.3945 38.5 41.8555 40.1406C41.6211 40.8438 41.3516 41.6992 41.0469 42.707C40.7422 43.7148 40.3789 44.9219 39.957 46.3281C39.5352 47.7344 39.0664 49.3633 38.5508 51.2148C38.0352 53.043 37.4492 55.1289 36.793 57.4727L31.9062 58.1055C31.3203 56.2773 30.8047 54.6133 30.3594 53.1133C29.9375 51.5898 29.5625 50.2891 29.2344 49.2109C28.8594 47.9453 28.543 46.8086 28.2852 45.8008C27.9336 44.582 27.6289 43.3516 27.3711 42.1094C27.1367 40.8438 26.9258 39.707 26.7383 38.6992C26.5742 37.668 26.4219 36.8125 26.2812 36.1328C26.1406 35.4531 25.9883 35.0547 25.8242 34.9375C25.6836 34.8203 25.4727 34.668 25.1914 34.4805C24.9336 34.3164 24.6055 34.1055 24.207 33.8477C23.7852 33.5664 23.2461 33.2031 22.5898 32.7578ZM43.7539 42.2852L50.2227 42.3555C49.8477 43.7852 49.5664 45.0039 49.3789 46.0117C49.2148 47.0195 49.1094 47.8633 49.0625 48.543C48.9688 49.3164 48.9453 49.9727 48.9922 50.5117C49.0625 51.0039 49.1797 51.5312 49.3438 52.0938C49.4844 52.5625 49.6953 53.1016 49.9766 53.7109C50.2578 54.3203 50.6328 54.9297 51.1016 55.5391C50.8203 55.4453 50.5156 55.375 50.1875 55.3281C49.8594 55.2812 49.5547 55.2461 49.2734 55.2227C48.9453 55.1992 48.6172 55.1992 48.2891 55.2227C47.9609 55.2461 47.5977 55.2812 47.1992 55.3281C46.8711 55.375 46.4727 55.4336 46.0039 55.5039C45.5352 55.5742 45.043 55.668 44.5273 55.7852C44.8789 54.7305 45.1484 53.8164 45.3359 53.043C45.5469 52.2695 45.6992 51.625 45.793 51.1094C45.8867 50.5 45.9453 50.0078 45.9688 49.6328C45.9688 49.1641 45.9688 48.6367 45.9688 48.0508C45.9688 47.4414 45.9688 46.8555 45.9688 46.293C45.9688 45.7305 45.957 45.2383 45.9336 44.8164C45.9102 44.3711 45.8633 44.0898 45.793 43.9727L45.4414 43.6211C45.3008 43.5039 45.0898 43.3398 44.8086 43.1289C44.5508 42.8945 44.1992 42.6133 43.7539 42.2852ZM46.25 36.8711C46.7422 36.6133 47.2344 36.543 47.7266 36.6602C48.2422 36.7773 48.6406 37 48.9219 37.3281C49.2031 37.6562 49.2969 38.043 49.2031 38.4883C49.1328 38.9336 48.7578 39.3672 48.0781 39.7891C47.3984 40.1875 46.8008 40.3281 46.2852 40.2109C45.7695 40.0938 45.4062 39.8477 45.1953 39.4727C44.9844 39.0977 44.9492 38.6641 45.0898 38.1719C45.2305 37.6562 45.6172 37.2227 46.25 36.8711ZM52.0156 41.1602C52.4609 41.1836 52.8594 41.1953 53.2109 41.1953C53.5859 41.1719 53.9023 41.1484 54.1602 41.125C54.4648 41.1016 54.7344 41.0781 54.9688 41.0547C55.3203 41.0078 55.6836 40.9492 56.0586 40.8789C56.3867 40.832 56.7266 40.7734 57.0781 40.7031C57.4531 40.6094 57.8164 40.5039 58.168 40.3867C58.0273 40.7383 57.9102 41.043 57.8164 41.3008C57.7227 41.5586 57.6523 41.7812 57.6055 41.9688C57.5352 42.1797 57.5 42.3555 57.5 42.4961C57.4766 42.6602 57.4648 42.8594 57.4648 43.0938C57.4414 43.4922 57.4414 44.1367 57.4648 45.0273C58.6836 43.9727 59.7031 43.1523 60.5234 42.5664C61.3672 41.9805 62.0352 41.5234 62.5273 41.1953C63.1133 40.8203 63.5703 40.5742 63.8984 40.457C64.7656 40.3164 65.5273 40.5156 66.1836 41.0547C66.4648 41.2891 66.7344 41.6055 66.9922 42.0039C67.25 42.3789 67.4727 42.8828 67.6602 43.5156C67.8477 44.1484 67.9883 44.9102 68.082 45.8008C68.1758 46.668 68.1875 47.7109 68.1172 48.9297C67.625 48.9766 67.1797 49.0234 66.7812 49.0703C66.4062 49.1172 66.0898 49.1523 65.832 49.1758C65.5273 49.2227 65.2461 49.2461 64.9883 49.2461L64.0391 49.3516C63.7109 49.3984 63.3008 49.4453 62.8086 49.4922C62.3398 49.5156 61.7656 49.5625 61.0859 49.6328C62.0703 48.8359 62.7031 48.1445 62.9844 47.5586C63.2891 46.9492 63.418 46.4453 63.3711 46.0469C63.3242 45.6016 63.1133 45.2148 62.7383 44.8867C62.293 44.6289 61.8125 44.5352 61.2969 44.6055C60.8516 44.6523 60.3359 44.8516 59.75 45.2031C59.1641 45.5547 58.543 46.2109 57.8867 47.1719C57.9336 48.6719 57.9805 49.9141 58.0273 50.8984C58.0977 51.8828 58.1562 52.6797 58.2031 53.2891C58.2734 53.9922 58.332 54.543 58.3789 54.9414C58.4492 55.293 58.5898 55.668 58.8008 56.0664C58.9648 56.3945 59.1992 56.7578 59.5039 57.1562C59.8086 57.5547 60.207 57.9531 60.6992 58.3516C59.668 58.3047 58.8242 58.3047 58.168 58.3516C57.7695 58.375 57.418 58.3984 57.1133 58.4219C56.7852 58.4688 56.4336 58.5156 56.0586 58.5625C55.7305 58.6094 55.3438 58.6562 54.8984 58.7031C54.4766 58.7734 54.0078 58.8438 53.4922 58.9141C53.6797 58.6562 53.832 58.3516 53.9492 58C54.0664 57.6719 54.1602 57.3555 54.2305 57.0508C54.3242 56.6992 54.3945 56.3359 54.4414 55.9609C54.4648 55.6328 54.4766 55.1406 54.4766 54.4844C54.5 53.8281 54.4883 53.0898 54.4414 52.2695C54.418 51.4258 54.3828 50.5586 54.3359 49.668C54.2891 48.7539 54.2305 47.8984 54.1602 47.1016C54.0898 46.3047 54.0078 45.6133 53.9141 45.0273C53.8438 44.418 53.7617 43.9961 53.668 43.7617C53.5508 43.4805 53.4102 43.1992 53.2461 42.918C53.1055 42.6602 52.9297 42.3906 52.7188 42.1094C52.5078 41.8047 52.2734 41.4883 52.0156 41.1602ZM69.1719 35.8516C69.875 35.9219 70.4609 35.9805 70.9297 36.0273C71.4219 36.0742 71.8203 36.1094 72.125 36.1328C72.4766 36.1562 72.7578 36.168 72.9688 36.168C73.1797 36.1914 73.4609 36.1914 73.8125 36.168C74.1172 36.1445 74.5156 36.1211 75.0078 36.0977C75.5 36.0508 76.1211 35.9805 76.8711 35.8867C76.707 36.1211 76.5781 36.332 76.4844 36.5195C76.3906 36.6836 76.3086 36.8359 76.2383 36.9766L76.0273 37.3984C75.9805 37.5391 75.9336 37.6797 75.8867 37.8203C75.8398 37.9375 75.793 38.0781 75.7461 38.2422C75.7227 38.4062 75.6992 38.582 75.6758 38.7695H81.0898L80.5977 41.6172L75.6406 41.3359C75.5234 42.5312 75.4414 43.457 75.3945 44.1133C75.3477 44.7695 75.3008 45.25 75.2539 45.5547L75.1836 46.1875C75.1133 47.0781 75.043 48.0508 74.9727 49.1055C74.9023 50.1367 74.8789 51.0977 74.9023 51.9883C74.9258 52.8789 75.0078 53.6289 75.1484 54.2383C75.2891 54.8242 75.5352 55.1172 75.8867 55.1172C76.2383 55.1172 76.5664 55.0234 76.8711 54.8359C77.1758 54.6484 77.4336 54.4258 77.6445 54.168C77.8789 53.9102 78.0547 53.6523 78.1719 53.3945C78.2891 53.1133 78.3477 52.9023 78.3477 52.7617C78.3477 52.6211 78.3125 52.457 78.2422 52.2695C78.125 51.918 77.9141 51.4727 77.6094 50.9336C78.2891 51.0977 78.8867 51.2617 79.4023 51.4258C79.6602 51.5195 79.8945 51.6133 80.1055 51.707C80.3398 51.8008 80.6094 51.9062 80.9141 52.0234C81.1719 52.1406 81.5 52.2812 81.8984 52.4453C82.2969 52.6094 82.7656 52.8086 83.3047 53.043C82.7891 53.1367 82.4141 53.2891 82.1797 53.5C82.0391 53.5938 81.9336 53.6992 81.8633 53.8164C81.6992 54.0742 81.5117 54.4258 81.3008 54.8711C81.0898 55.293 80.7734 55.7148 80.3516 56.1367C79.9297 56.5586 79.3555 56.9336 78.6289 57.2617C77.9258 57.5898 76.9766 57.7773 75.7812 57.8242C74.5391 57.8711 73.5898 57.6602 72.9336 57.1914C72.3008 56.7227 71.832 56.1836 71.5273 55.5742C71.2461 54.9414 71.082 54.3203 71.0352 53.7109C70.9883 53.1016 70.9531 52.6914 70.9297 52.4805C70.9062 52.2695 70.9062 51.7422 70.9297 50.8984C70.9531 50.0547 70.9883 49.1289 71.0352 48.1211C71.082 47.0898 71.1289 46.1055 71.1758 45.168C71.2227 44.207 71.2461 43.5039 71.2461 43.0586C71.2461 42.8242 71.2578 42.5781 71.2812 42.3203C71.2812 42.1094 71.2812 41.8867 71.2812 41.6523C71.3047 41.3945 71.3164 41.1484 71.3164 40.9141L66.2188 40.8789L66.0078 38.875L71.1406 39.0156C71.0938 38.7578 71.0352 38.5234 70.9648 38.3125C70.918 38.0781 70.8711 37.8906 70.8242 37.75C70.7539 37.5859 70.6836 37.4453 70.6133 37.3281C70.5195 37.2109 70.4141 37.082 70.2969 36.9414C70.1797 36.8242 70.0273 36.6719 69.8398 36.4844C69.6523 36.2969 69.4297 36.0859 69.1719 35.8516ZM82.0391 41.8281C82.6484 41.9453 83.1758 42.0391 83.6211 42.1094C84.0898 42.1562 84.4883 42.2031 84.8164 42.25C85.1914 42.2969 85.5195 42.332 85.8008 42.3555C86.082 42.3789 86.4102 42.4023 86.7852 42.4258C87.418 42.4492 88.3086 42.4492 89.457 42.4258C88.7773 42.3789 88.2383 42.5547 87.8398 42.9531C87.4648 43.3281 87.1836 43.7617 86.9961 44.2539C86.7617 44.8398 86.6328 45.5195 86.6094 46.293C86.5625 47.3242 86.5859 48.2617 86.6797 49.1055C86.7969 49.9258 86.9961 50.6289 87.2773 51.2148C87.582 51.7773 87.9805 52.1992 88.4727 52.4805C88.9648 52.7383 89.5977 52.8086 90.3711 52.6914C91.1445 52.5742 91.7305 52.3047 92.1289 51.8828C92.5508 51.4375 92.8555 50.8984 93.043 50.2656C93.2305 49.6094 93.3359 48.8711 93.3594 48.0508C93.4062 47.2305 93.4414 46.375 93.4648 45.4844C93.4648 44.5938 93.4531 43.9609 93.4297 43.5859C93.4297 43.1875 93.418 42.9297 93.3945 42.8125C93.3711 42.6953 93.3359 42.6484 93.2891 42.6719C93.2422 42.6719 93.1836 42.6133 93.1133 42.4961C93.0664 42.4023 92.9961 42.3086 92.9023 42.2148C92.832 42.1211 92.7383 42.0156 92.6211 41.8984C92.5039 41.7578 92.375 41.6172 92.2344 41.4766C92.8438 41.5 93.3828 41.5234 93.8516 41.5469C94.3438 41.5469 94.7539 41.5586 95.082 41.582C95.457 41.6055 95.7852 41.6289 96.0664 41.6523C96.3242 41.6758 96.6641 41.7109 97.0859 41.7578C97.4375 41.8047 97.8945 41.8516 98.457 41.8984C99.0195 41.9453 99.6875 42.0156 100.461 42.1094C99.9219 42.2266 99.4883 42.4023 99.1602 42.6367C98.832 42.8711 98.5742 43.1055 98.3867 43.3398C98.1758 43.5977 98.0234 43.8789 97.9297 44.1836C97.8594 44.582 97.8594 45.1914 97.9297 46.0117C97.9766 46.7383 98.0938 47.7344 98.2812 49C98.4688 50.2656 98.7617 51.9297 99.1602 53.9922L96.3828 55.6445L95.8203 50.9688C95.1406 52.1172 94.4141 53.0078 93.6406 53.6406C92.8906 54.25 92.1875 54.6953 91.5312 54.9766C90.7578 55.3047 90.0078 55.4922 89.2812 55.5391C88.3203 55.5391 87.4883 55.4805 86.7852 55.3633C86.1055 55.2227 85.5195 55.0469 85.0273 54.8359C84.5352 54.625 84.1367 54.3906 83.832 54.1328C83.5508 53.8516 83.3398 53.5703 83.1992 53.2891C82.8711 52.7031 82.6953 51.9531 82.6719 51.0391C82.6484 50.1016 82.6836 49.1758 82.7773 48.2617C82.8711 47.3242 82.9766 46.4688 83.0938 45.6953C83.2109 44.9219 83.2461 44.3945 83.1992 44.1133C83.1523 43.9023 83.082 43.668 82.9883 43.4102C82.8945 43.1992 82.7773 42.9648 82.6367 42.707C82.4961 42.4258 82.2969 42.1328 82.0391 41.8281ZM103.625 43.7617C103.742 43.6211 103.812 43.3633 103.836 42.9883C103.883 42.5898 103.977 42.1445 104.117 41.6523C104.281 41.1602 104.551 40.6445 104.926 40.1055C105.301 39.5664 105.91 39.0625 106.754 38.5938C107.574 38.125 108.371 37.8438 109.145 37.75C109.918 37.6562 110.656 37.6914 111.359 37.8555C112.062 38.0195 112.719 38.2773 113.328 38.6289C113.961 38.9805 114.535 39.3672 115.051 39.7891C115.402 40.0703 115.684 40.4805 115.895 41.0195C116.105 41.5352 116.27 42.1211 116.387 42.7773C116.504 43.4336 116.586 44.125 116.633 44.8516C116.703 45.5547 116.75 46.2461 116.773 46.9258C116.797 47.582 116.809 48.1914 116.809 48.7539C116.832 49.293 116.879 49.7383 116.949 50.0898C117.043 50.6055 117.207 51.0508 117.441 51.4258C117.676 51.7773 117.934 52.082 118.215 52.3398C118.496 52.5742 118.777 52.7617 119.059 52.9023C119.34 53.043 119.586 53.1484 119.797 53.2188C119.938 53.2891 120.066 53.3359 120.184 53.3594C120.418 53.4531 120.582 53.4531 120.676 53.3594C120.535 53.6875 120.406 53.9688 120.289 54.2031C120.172 54.4375 120.078 54.6367 120.008 54.8008C119.914 54.9883 119.832 55.1406 119.762 55.2578C119.691 55.3984 119.609 55.5273 119.516 55.6445C119.445 55.7617 119.352 55.8906 119.234 56.0312C119.117 56.1719 119 56.3242 118.883 56.4883C118.578 56.3711 118.285 56.2305 118.004 56.0664C117.746 55.9023 117.512 55.75 117.301 55.6094C117.043 55.4453 116.809 55.2812 116.598 55.1172C116.387 54.9531 116.188 54.7656 116 54.5547C115.836 54.3672 115.66 54.168 115.473 53.957C115.309 53.7461 115.168 53.5117 115.051 53.2539C114.91 53.5586 114.57 53.9922 114.031 54.5547C113.516 55.1172 112.836 55.6328 111.992 56.1016C111.148 56.5469 110.164 56.8633 109.039 57.0508C107.938 57.2383 106.719 57.1094 105.383 56.6641C104.797 56.4766 104.246 56.207 103.73 55.8555C103.215 55.4805 102.77 55.0352 102.395 54.5195C102.043 54.0039 101.785 53.418 101.621 52.7617C101.48 52.082 101.492 51.332 101.656 50.5117C101.82 49.6914 102.113 49 102.535 48.4375C102.957 47.875 103.461 47.418 104.047 47.0664C104.633 46.7148 105.289 46.4453 106.016 46.2578C106.742 46.0703 107.492 45.9414 108.266 45.8711C108.875 45.8477 109.484 45.8828 110.094 45.9766C110.609 46.0703 111.148 46.2461 111.711 46.5039C112.273 46.7383 112.754 47.1016 113.152 47.5938C113.129 46.3516 113.082 45.3672 113.012 44.6406C112.965 43.8906 112.918 43.3164 112.871 42.918C112.777 42.4492 112.695 42.1211 112.625 41.9336C112.508 41.7695 112.379 41.582 112.238 41.3711C112.121 41.1602 111.969 40.9727 111.781 40.8086C111.594 40.6211 111.359 40.4688 111.078 40.3516C110.797 40.2344 110.469 40.1875 110.094 40.2109C109.695 40.2344 109.379 40.3398 109.145 40.5273C108.91 40.7148 108.723 40.9375 108.582 41.1953C108.465 41.4297 108.395 41.6875 108.371 41.9688C108.348 42.25 108.359 42.4961 108.406 42.707C108.453 42.8477 108.523 43 108.617 43.1641C108.711 43.3047 108.84 43.457 109.004 43.6211C109.168 43.7852 109.391 43.9258 109.672 44.043C109.133 44.1133 108.652 44.1719 108.23 44.2188C107.809 44.2422 107.445 44.2773 107.141 44.3242C106.789 44.3711 106.484 44.4062 106.227 44.4297C105.969 44.4531 105.664 44.5 105.312 44.5703C105.008 44.6172 104.633 44.6758 104.188 44.7461C103.742 44.8164 103.227 44.9102 102.641 45.0273C102.781 44.8633 102.91 44.7109 103.027 44.5703C103.145 44.4062 103.25 44.2656 103.344 44.1484C103.438 44.0078 103.531 43.8789 103.625 43.7617ZM108.898 47.9453C108.477 47.9688 108.055 48.0742 107.633 48.2617C107.211 48.4258 106.836 48.6719 106.508 49C106.18 49.3047 105.898 49.668 105.664 50.0898C105.453 50.4883 105.348 50.9336 105.348 51.4258C105.348 51.918 105.465 52.3516 105.699 52.7266C105.957 53.0781 106.285 53.3711 106.684 53.6055C107.105 53.8398 107.551 53.9805 108.02 54.0273C108.512 54.0742 108.992 54.0273 109.461 53.8867C109.906 53.7227 110.328 53.4648 110.727 53.1133C111.125 52.7383 111.465 52.3398 111.746 51.918C112.027 51.4727 112.227 51.0391 112.344 50.6172C112.461 50.1719 112.473 49.8086 112.379 49.5273C112.191 48.918 111.77 48.4961 111.113 48.2617C110.457 48.0039 109.719 47.8984 108.898 47.9453ZM119.973 41.1602C120.418 41.1836 120.816 41.1953 121.168 41.1953C121.543 41.1719 121.859 41.1484 122.117 41.125C122.422 41.1016 122.691 41.0781 122.926 41.0547C123.277 41.0078 123.641 40.9492 124.016 40.8789C124.344 40.832 124.684 40.7734 125.035 40.7031C125.41 40.6094 125.773 40.5039 126.125 40.3867C125.984 40.7383 125.867 41.043 125.773 41.3008C125.68 41.5586 125.609 41.7812 125.562 41.9688C125.492 42.1797 125.457 42.3555 125.457 42.4961C125.434 42.6602 125.422 42.8594 125.422 43.0938C125.398 43.4922 125.398 44.1367 125.422 45.0273C126.641 43.9727 127.66 43.1523 128.48 42.5664C129.324 41.9805 129.992 41.5234 130.484 41.1953C131.07 40.8203 131.527 40.5742 131.855 40.457C132.723 40.3164 133.484 40.5156 134.141 41.0547C134.422 41.2891 134.691 41.6055 134.949 42.0039C135.207 42.3789 135.43 42.8828 135.617 43.5156C135.805 44.1484 135.945 44.9102 136.039 45.8008C136.133 46.668 136.145 47.7109 136.074 48.9297C135.582 48.9766 135.137 49.0234 134.738 49.0703C134.363 49.1172 134.047 49.1523 133.789 49.1758C133.484 49.2227 133.203 49.2461 132.945 49.2461L131.996 49.3516C131.668 49.3984 131.258 49.4453 130.766 49.4922C130.297 49.5156 129.723 49.5625 129.043 49.6328C130.027 48.8359 130.66 48.1445 130.941 47.5586C131.246 46.9492 131.375 46.4453 131.328 46.0469C131.281 45.6016 131.07 45.2148 130.695 44.8867C130.25 44.6289 129.77 44.5352 129.254 44.6055C128.809 44.6523 128.293 44.8516 127.707 45.2031C127.121 45.5547 126.5 46.2109 125.844 47.1719C125.891 48.6719 125.938 49.9141 125.984 50.8984C126.055 51.8828 126.113 52.6797 126.16 53.2891C126.23 53.9922 126.289 54.543 126.336 54.9414C126.406 55.293 126.547 55.668 126.758 56.0664C126.922 56.3945 127.156 56.7578 127.461 57.1562C127.766 57.5547 128.164 57.9531 128.656 58.3516C127.625 58.3047 126.781 58.3047 126.125 58.3516C125.727 58.375 125.375 58.3984 125.07 58.4219C124.742 58.4688 124.391 58.5156 124.016 58.5625C123.688 58.6094 123.301 58.6562 122.855 58.7031C122.434 58.7734 121.965 58.8438 121.449 58.9141C121.637 58.6562 121.789 58.3516 121.906 58C122.023 57.6719 122.117 57.3555 122.188 57.0508C122.281 56.6992 122.352 56.3359 122.398 55.9609C122.422 55.6328 122.434 55.1406 122.434 54.4844C122.457 53.8281 122.445 53.0898 122.398 52.2695C122.375 51.4258 122.34 50.5586 122.293 49.668C122.246 48.7539 122.188 47.8984 122.117 47.1016C122.047 46.3047 121.965 45.6133 121.871 45.0273C121.801 44.418 121.719 43.9961 121.625 43.7617C121.508 43.4805 121.367 43.1992 121.203 42.918C121.062 42.6602 120.887 42.3906 120.676 42.1094C120.465 41.8047 120.23 41.4883 119.973 41.1602ZM135.758 40.0352C136.227 40.1055 136.648 40.1641 137.023 40.2109C137.375 40.2344 137.691 40.2578 137.973 40.2812C138.277 40.3047 138.57 40.3164 138.852 40.3164C139.109 40.3164 139.438 40.3047 139.836 40.2812C140.164 40.2578 140.586 40.2344 141.102 40.2109C141.641 40.1641 142.273 40.1055 143 40.0352C142.953 40.1289 142.859 40.4219 142.719 40.9141C142.578 41.3828 142.438 41.9688 142.297 42.6719C142.156 43.3516 142.027 44.1133 141.91 44.957C141.816 45.7773 141.77 46.5977 141.77 47.418C141.793 48.2148 141.898 48.9766 142.086 49.7031C142.273 50.4062 142.578 50.9805 143 51.4258C143.891 52.3398 144.676 52.8906 145.355 53.0781C146.059 53.2656 146.668 53.2422 147.184 53.0078C147.699 52.7734 148.121 52.4219 148.449 51.9531C148.777 51.4844 149.012 51.0508 149.152 50.6523C149.504 49.5742 149.715 48.4375 149.785 47.2422C149.832 46.2109 149.75 45.0625 149.539 43.7969C149.328 42.5312 148.824 41.2422 148.027 39.9297C148.637 39.9766 149.164 40.0117 149.609 40.0352C150.055 40.0586 150.441 40.082 150.77 40.1055C151.145 40.1289 151.473 40.1523 151.754 40.1758C152.012 40.1992 152.316 40.1992 152.668 40.1758C152.973 40.1758 153.336 40.1641 153.758 40.1406C154.203 40.0938 154.695 40.0469 155.234 40C155.328 42.2969 155.41 44.3477 155.48 46.1523C155.551 47.9336 155.598 49.5156 155.621 50.8984C155.668 52.2578 155.691 53.4414 155.691 54.4492C155.691 55.4336 155.691 56.2656 155.691 56.9453C155.668 58.5625 155.598 59.6289 155.48 60.1445C155.293 60.8711 154.953 61.5977 154.461 62.3242C153.992 63.0508 153.395 63.6953 152.668 64.2578C151.941 64.8438 151.098 65.2891 150.137 65.5938C149.199 65.9219 148.168 66.0391 147.043 65.9453C145.941 65.8516 145.062 65.6992 144.406 65.4883C143.773 65.3008 143.27 65.0781 142.895 64.8203C142.543 64.5625 142.285 64.293 142.121 64.0117C141.98 63.7305 141.875 63.4375 141.805 63.1328C141.734 62.8516 141.664 62.582 141.594 62.3242C141.523 62.0664 141.383 61.8438 141.172 61.6562C140.914 61.4453 140.645 61.2344 140.363 61.0234C140.105 60.8359 139.824 60.6484 139.52 60.4609C139.238 60.2734 138.957 60.1211 138.676 60.0039L146.164 59.582C145.953 59.8633 145.801 60.1211 145.707 60.3555C145.613 60.5898 145.555 60.7891 145.531 60.9531C145.508 61.1641 145.52 61.3398 145.566 61.4805C145.66 61.7617 145.824 62.0664 146.059 62.3945C146.316 62.7461 146.645 63.0156 147.043 63.2031C147.441 63.4141 147.91 63.4844 148.449 63.4141C149.012 63.3438 149.645 63.0508 150.348 62.5352C150.934 62.0898 151.426 61.375 151.824 60.3906C152.152 59.5469 152.41 58.3633 152.598 56.8398C152.785 55.3164 152.75 53.3125 152.492 50.8281C152.07 52.2812 151.496 53.3945 150.77 54.168C150.043 54.9414 149.316 55.5039 148.59 55.8555C147.746 56.2773 146.867 56.5 145.953 56.5234C144.734 56.4766 143.691 56.3242 142.824 56.0664C141.957 55.7852 141.242 55.4102 140.68 54.9414C140.117 54.4727 139.672 53.9219 139.344 53.2891C139.039 52.6328 138.816 51.9062 138.676 51.1094C138.535 50.3125 138.465 49.5156 138.465 48.7188C138.465 47.8984 138.465 47.1367 138.465 46.4336C138.488 45.7305 138.5 45.0977 138.5 44.5352C138.5 43.9492 138.441 43.4805 138.324 43.1289C138.184 42.7773 137.996 42.4258 137.762 42.0742C137.574 41.7695 137.316 41.4414 136.988 41.0898C136.637 40.7148 136.227 40.3633 135.758 40.0352Z" fill="url(#paint0_linear_50_6)"/>
<defs>
<linearGradient id="paint0_linear_50_6" x1="26" y1="42.5" x2="161" y2="58" gradientUnits="userSpaceOnUse">
<stop stop-color="#D9ED92"/>
<stop offset="0.37037" stop-color="#A8DB93"/>
<stop offset="1" stop-color="#76C893"/>
</linearGradient>
</defs>
</svg>
