<svg width="76" height="70" viewBox="0 0 76 70" fill="none" xmlns="http://www.w3.org/2000/svg">
<path d="M21.4766 17.7578C23.0469 17.8281 24.2656 17.8633 25.1328 17.8633H26.4336C26.8086 17.8633 27.2773 17.8516 27.8398 17.8281C28.3086 17.8047 28.9062 17.793 29.6328 17.793C30.3594 17.7695 31.2266 17.7344 32.2344 17.6875C31.7656 18.0156 31.3906 18.332 31.1094 18.6367C30.8281 18.9414 30.6055 19.2109 30.4414 19.4453C30.2539 19.7266 30.125 19.9844 30.0547 20.2188C29.8906 20.8281 29.8203 21.6602 29.8438 22.7148C29.8906 23.7461 29.9961 24.8711 30.1602 26.0898C30.3242 27.2852 30.5234 28.5039 30.7578 29.7461C30.9922 30.9883 31.2266 32.1133 31.4609 33.1211C31.7188 34.1289 31.9414 34.9609 32.1289 35.6172C32.3398 36.25 32.4922 36.5664 32.5859 36.5664C32.6797 36.5664 32.8555 36.2266 33.1133 35.5469C33.3945 34.8672 33.7109 34.0117 34.0625 32.9805C34.4141 31.9258 34.7773 30.7891 35.1523 29.5703C35.5273 28.3281 35.8672 27.1562 36.1719 26.0547C36.5 24.9297 36.7695 23.9688 36.9805 23.1719C37.1914 22.3516 37.2969 21.8477 37.2969 21.6602C37.2734 21.4023 37.1914 21.1328 37.0508 20.8516C36.9336 20.5938 36.7227 20.3008 36.418 19.9727C36.1367 19.6211 35.7383 19.2227 35.2227 18.7773C35.9492 18.7539 36.5703 18.7305 37.0859 18.707C37.625 18.6836 38.082 18.6719 38.457 18.6719H39.5469H45.1719C44.5859 19.0703 44.082 19.457 43.6602 19.832C43.2617 20.207 42.9336 20.5586 42.6758 20.8867C42.3711 21.2617 42.1133 21.6133 41.9023 21.9414C41.668 22.4336 41.2812 23.5 40.7422 25.1406C40.5078 25.8438 40.2383 26.6992 39.9336 27.707C39.6289 28.7148 39.2656 29.9219 38.8438 31.3281C38.4219 32.7344 37.9531 34.3633 37.4375 36.2148C36.9219 38.043 36.3359 40.1289 35.6797 42.4727L30.793 43.1055C30.207 41.2773 29.6914 39.6133 29.2461 38.1133C28.8242 36.5898 28.4492 35.2891 28.1211 34.2109C27.7461 32.9453 27.4297 31.8086 27.1719 30.8008C26.8203 29.582 26.5156 28.3516 26.2578 27.1094C26.0234 25.8438 25.8125 24.707 25.625 23.6992C25.4609 22.668 25.3086 21.8125 25.168 21.1328C25.0273 20.4531 24.875 20.0547 24.7109 19.9375C24.5703 19.8203 24.3594 19.668 24.0781 19.4805C23.8203 19.3164 23.4922 19.1055 23.0938 18.8477C22.6719 18.5664 22.1328 18.2031 21.4766 17.7578Z" fill="url(#paint0_linear_47_7)"/>
<rect x="8.5" y="5.5" width="49" height="49" rx="13.5" stroke="url(#paint1_linear_47_7)"/>
<defs>
<linearGradient id="paint0_linear_47_7" x1="22" y1="30" x2="45.2927" y2="30.4936" gradientUnits="userSpaceOnUse">
<stop stop-color="#D9ED92"/>
<stop offset="0.37037" stop-color="#A8DB93"/>
<stop offset="1" stop-color="#76C893"/>
</linearGradient>
<linearGradient id="paint1_linear_47_7" x1="11.5" y1="7.5" x2="50" y2="52" gradientUnits="userSpaceOnUse">
<stop offset="0.005" stop-color="#D9ED92"/>
<stop offset="1" stop-color="#76C893"/>
</linearGradient>
</defs>
</svg>
